<svg viewBox="0 0 70 70" version="1.1" xmlns="http://www.w3.org/2000/svg" xmlns:xlink="http://www.w3.org/1999/xlink">
  <path d="M69.3196,48.343193 L69.1838,48.343193 C69.0403,48.343193 68.9094,48.2621546 68.845,48.133611 L63.2072,36.8804546 C62.8334,36.1343427 61.7659,36.1343427 61.3928,36.8804546 L60.1475,39.3647 C60.0782,39.5044213 59.8843,39.5197907 59.794,39.3926442 L57.1074,35.6390306 C56.8512,35.2820425 56.4382,35.0696661 55.9979,35.0696661 L53.0964,35.0696661 C52.8115,35.0696661 52.57,34.8607827 52.5294,34.5792442 L51.8,29.4808127 L53.5969,28.2847981 C53.7859,28.1590489 53.9,27.947371 53.9,27.7196253 L53.9,26.666825 C53.9,26.2923718 53.5955,25.9877793 53.2196,25.9877793 L51.4549,25.9877793 C51.1742,25.9877793 50.9383,25.7747043 50.9103,25.4959602 L50.5302,21.6976357 C50.498,21.3762766 50.7507,21.0975326 51.0748,21.0975326 L51.8196,21.0975326 C52.1955,21.0975326 52.5,20.79294 52.5,20.4184869 L52.5,19.1868433 C52.5,19.0659843 52.4671,18.9465226 52.4055,18.8417316 L46.4597,8.75454978 C45.8311,7.68777738 45.5,6.47290037 45.5,5.23566794 L45.5,3.91180829 C45.5,3.76230646 45.6239,3.64494054 45.773,3.65681685 C46.0369,3.67777505 46.4513,3.70502071 46.8272,3.70502071 C47.4397,3.70502071 48.1467,3.57997012 48.4498,3.5156983 C48.7529,3.45142649 49,3.26978875 49,2.96729206 L49,0.571769764 C49,0.0736632028 48.8082,-0.0597706726 48.4498,0.0226649153 C48.0914,0.105100503 47.2759,0.226658065 46.7684,0.211987325 C45.6897,0.180550025 44.9729,0.139332231 44.6495,0.139332231 C44.3261,0.139332231 44.1,0.385241781 44.1,0.688437079 L44.1,5.23566794 C44.1,6.47290037 43.7682,7.68777738 43.1396,8.75454978 L37.1938,18.8417316 C37.1322,18.9465226 37.1,19.0659843 37.1,19.1868433 L37.1,20.4184869 C37.1,20.79294 37.4045,21.0975326 37.7797,21.0975326 L38.5252,21.0975326 C38.8486,21.0975326 39.102,21.3762766 39.0698,21.6976357 L38.689,25.4959602 C38.661,25.7747043 38.4258,25.9877793 38.1444,25.9877793 L36.3797,25.9877793 C36.0045,25.9877793 35.7,26.2923718 35.7,26.666825 L35.7,27.7196253 C35.7,27.947371 35.8134,28.1590489 36.0024,28.2847981 L37.8,29.4808127 L36.7122,37.0788589 C36.6569,37.462394 36.3279,37.7474255 35.9394,37.7474255 L30.1742,37.7474255 C29.8781,37.7474255 29.6079,37.5811571 29.4756,37.3170838 L24.7072,27.7985678 C24.3334,27.0524559 23.2659,27.0524559 22.8928,27.7985678 L13.8306,45.8861933 C13.6843,46.1789095 13.2657,46.1789095 13.1187,45.8861933 L8.6072,36.8804546 C8.2334,36.1343427 7.1659,36.1343427 6.7928,36.8804546 L1.155,48.133611 C1.0906,48.2621546 0.959,48.343193 0.8155,48.343193 L0.6797,48.343193 C0.3045,48.343193 0,48.6477855 0,49.0222387 L0,50.7736456 C0,51.0013914 0.1134,51.2130692 0.3024,51.3388184 L3.3117,53.3410252 C3.8556,53.7029034 4.1461,54.3414299 4.0614,54.9883397 L2.2491,68.8563809 C2.17,69.4620729 2.6432,70 3.255,70 L26.0512,70 C26.5629,70 26.9948,69.623451 27.0578,69.1162626 C27.363,66.6711392 27.7515,63.5644353 28,61.6167199 C28.4641,57.9783763 30.975,54.6306531 35,54.6306531 C39.025,54.6306531 41.5198,57.8044232 42,61.6167199 C42.2576,63.6657333 42.6419,66.7298221 42.9422,69.1323305 C43.0045,69.6304371 43.428,70 43.9306,70 L66.7443,70 C67.3568,70 67.83,69.4620729 67.7502,68.8563809 L65.9379,54.9883397 C65.8532,54.3414299 66.1437,53.7029034 66.6876,53.3410252 L69.6969,51.3388184 C69.8859,51.2130692 70,51.0013914 70,50.7736456 L70,49.0222387 C70,48.6477855 69.6955,48.343193 69.3196,48.343193" id="castle" fill="#E4E4E4"></path>
</svg>
